<svg
    width="23"
    height="42"
    viewBox="0 0 23 42"
    fill="none"
    xmlns="http://www.w3.org/2000/svg"
>
    <path d="M11.4999 41C8.00642 41 1.01944 38.5238 1.01944 28.6191C1.01944 16.2381 0.0666756 10.5238 11.4999 10.5238" stroke="black" />
    <path d="M21.9805 22.9048C17.9293 24.3124 14.7539 24.9972 11.5 24.9685M1.01953 22.9048C5.15525 24.2501 8.36405 24.9407 11.5 24.9685M11.5 10.5238V24.9685" stroke="black" />
    <path d="M11.5001 10.5238C10.5473 5.7619 18.1694 6.71429 11.5001 1" stroke="black" strokeLinecap="round" />
    <path d="M11.5001 41C14.9936 41 21.9806 38.5238 21.9806 28.6191C21.9806 16.2381 22.9333 10.5238 11.5001 10.5238" stroke="black" />
    <rect x="9" y="14" width="5" height="8" rx="2.5" fill="black" />
</svg>